<svg version="1.1" viewBox="0 0 300.06 44.112" xmlns="http://www.w3.org/2000/svg">
 <path d="m0.48 31.056q0-5.184 3.072-10.272-3.552-2.256-3.552-6.672 0-5.328 4.704-9.456 5.28-4.656 13.632-4.656 3.84 0 8.256 1.104 1.008 0.24 8.592 3.72t10.896 3.48q2.208 0 3.312-1.248 0.576-0.624 0.576-1.344t-0.624-1.296q-0.336-0.48-0.336-0.624t0.264-0.144 0.912 0.84 0.648 1.968-1.512 2.16-3.816 1.032q-3.6 0-11.184-3.48t-9.528-3.864-4.44-0.384q-9.936 0-15.648 6.432-0.672 0.72-1.584 2.904t-0.912 4.2q0 2.784 1.968 4.32 2.496-3.648 5.904-5.808t6.912-2.16q4.32 0 4.32 3.36 0 4.032-4.728 8.76t-8.76 4.728q-2.592 0-2.592-2.208 0-0.768 0.408-1.344t0.984-0.432l-0.096 1.104q0 0.72 2.208 0.72 3.264 0 6.888-3.36t4.392-6.576q0.192-0.72 0.192-1.296 0-2.16-2.76-2.16t-5.712 2.112-5.544 5.568q0.192 0.096 1.488 0.384l2.88 0.096q2.112 0.096 2.112 0.48 0 0.672-2.016 0.672h-0.288q-2.928 0-4.8-0.72-3.696 5.664-3.696 10.416 0 6.144 4.752 6.144 5.376 0 11.184-7.488l9.408-14.016q5.28-7.68 9.168-7.872l1.824 0.432q0.864 0.48 0.864 1.44t-0.48 0.96l-1.536-0.24q-3.312 0-8.496 7.152l-9.552 13.344q-6.144 7.152-11.76 7.152-3.84 0-5.304-2.064t-1.464-6zm45.032-6.96q0 1.68-3.216 5.616-3.792 4.656-6.48 4.656h-0.768q-1.248 0-1.968-1.296-0.576-0.912-0.576-2.016 0-2.88 4.2-8.088t6.792-5.208q2.448 0 2.448 2.592 0 0.672-0.24 1.728 0.048 0.144 0.912 0.144t2.64-0.912q-0.048 0.816-3.792 2.352 0.048 0.192 0.048 0.432zm-3.12-2.496q-1.632 0-4.632 3.84t-3 5.664 1.152 1.824q2.064 0 5.232-3.744t3.168-5.376q-0.768-0.432-1.92-2.208zm21.944-1.872q5.376-8.736 7.488-8.736 0.336 0 0.936 0.216t0.6 0.648q0 0.24-0.24 0.624-3.84 4.704-5.712 7.056-5.664 7.152-6.24 10.272-0.144 0.672-0.144 1.344 0 2.16 1.776 2.16 3.552 0 9.264-6.576 0.48-0.48 0.816-0.552t0.336 0.168-0.288 0.576q-5.568 6.672-9.888 7.44-0.24 0.048-0.672 0.048-1.488 0-2.232-1.032t-0.744-2.232q0-1.344 0.528-2.976l-3.888 3.888q-2.64 2.448-4.152 2.448t-2.52-0.816q-1.2-0.912-1.2-2.544 0-3.504 4.896-8.376t8.976-4.872q1.344 0 1.872 0.72 0.192 0.24 0.432 1.104zm-14.16 12q0 1.728 1.2 1.728 2.064 0 6.864-5.664 0.864-1.008 5.76-7.536-0.336-0.576-1.152-0.576-2.976 0-7.824 4.536t-4.848 7.512zm38.888-11.808 0.672-0.144q0.528 0 1.008 0.432t0.48 0.672-2.976 4.632-2.976 6.12q0 0.144 0.048 0.288 0.24 1.104 1.056 1.104 2.496 0 9.12-8.256 0.144-0.192 0.336-0.192t0.192 0.36-0.432 0.936q-6.144 8.208-9.36 8.208-0.432 0-0.816-0.144-2.112-0.816-2.112-3.168 0-0.816 0.192-1.632l-2.976 2.88q-2.832 2.496-4.104 2.496t-2.424-0.816q-1.296-0.96-1.296-2.544 0-3.504 4.896-8.376t8.976-4.872q1.584 0 2.112 1.104 0.144 0.384 0.24 0.648t0.144 0.264zm-14.352 11.808q0 1.728 1.2 1.728 2.784 0 7.584-6.096l5.088-7.008q-0.384-0.672-1.248-0.672-2.928 0-7.776 4.536t-4.848 7.512zm17.624 8.112q2.304 2.88 3.984 2.88 2.736 0 5.904-4.368 2.304-3.216 4.512-8.112l1.824-4.416-7.056 5.52q-3.264 2.544-5.232 2.544-1.056 0-1.68-0.72t-0.624-1.632q0-2.064 3.552-6.792t5.184-4.728 1.632 1.104q0 0.432-4.248 4.968t-4.248 6.12q0 0.624 0.816 0.624 1.536 0 6.168-3.6t6.984-5.952q0.528-0.624 1.488-1.872 0.912-1.056 2.016-1.056t1.104 1.056q0 0.192-2.16 3.408t-2.256 3.408q-1.488 2.88-4.56 8.4-4.656 7.488-9.312 7.488-1.536 0-2.688-1.32t-1.104-2.952zm68.464-24.576-0.336-1.296q0-0.384 0.384-0.384 0.144 0 0.384 0.144 1.104 0.816 1.104 2.16t-1.728 2.616-4.368 1.272q-0.816 0-1.632-0.144-3.312 6.096-8.064 11.232-6.336 6.72-11.52 6.72-7.488 0-7.488-8.832 0-7.296 3.888-11.76 3.264-3.84 7.488-3.84 1.104 0 2.256 0.384 2.832 1.104 2.832 4.68t-2.928 7.464-6 3.888q-3.456 0-3.456-3.744 0-1.056 0.456-2.208t1.032-1.152q0.432 0 0.432 0.432 0 0.24-0.432 1.2t-0.432 1.704 0.792 1.392 1.656 0.648q2.832 0 5.256-3.48t2.424-6.792q0-2.544-1.824-3.36-0.624-0.24-1.296-0.24-3.408 0-6.816 4.704-3.312 4.752-3.312 10.416 0 3.12 1.344 5.088 1.392 2.016 3.84 2.016 6.336 0 16.512-17.232-5.28-1.584-5.28-6.24 0-6.192 6.288-9.888 3.984-2.304 7.728-2.304 2.928 0 5.28 0.96 3.312 1.296 3.312 3.936 0 0.576-0.264 1.104t-0.552 0.528q-0.624-0.624-1.488-0.624-4.08 0-11.184 12.144 0.384 0.048 0.816 0.048 1.632 0 3.264-0.96t1.632-2.4zm-5.304-11.976q-3.192 1.416-5.088 4.152t-1.896 6.192 3.552 4.128q2.64-4.32 6.816-8.616t6.96-4.296q0.72 0 1.248 0.336-0.048-1.344-1.872-2.352-1.632-0.96-4.08-0.96t-5.64 1.416zm53.656 2.568q0 3.792-3.696 8.928-2.88 4.032-7.656 6.48t-8.808 2.448q-1.488 0-2.496-0.336-2.016 2.592-6.48 8.112 1.68 2.4 6.072 4.512t7.56 2.112 4.704-0.864q2.112-1.104 2.112-3.168 0-0.528-0.096-1.008t0.312-0.48 0.72 0.696 0.312 1.224q0 1.68-1.776 3.168-2.256 1.824-6.144 1.824t-8.064-1.824-6.864-4.944q-3.84 3.84-7.296 3.84-1.056 0-1.824-0.384-1.68-0.96-1.68-3.648t2.232-6.624 3.528-4.176q0.864 0 1.968 1.968l3.024 5.856q2.544-3.36 5.328-7.344-3.936-1.776-3.936-5.136 0-2.784 2.256-4.512 1.248-0.912 2.664-0.912t2.136 1.488q0.144 0.288 0.024 0.36t-0.168 0.024q-0.96-0.96-2.064-0.96h-0.096q-1.392 0-2.424 1.488t-1.032 2.736v0.288q0 2.496 3.456 4.272 0.576-0.816 1.848-2.712t1.992-2.952q9.552-14.016 15.888-14.016 4.464 0 4.464 4.176zm-4.272-3.36q-2.4 0-5.952 4.032-2.448 2.832-5.736 7.608t-5.928 8.184q0.624 0.144 1.392 0.144 3.36 0 7.68-2.304t6.816-5.808q4.368-6.096 4.368-9.264 0-1.92-1.68-2.448-0.432-0.144-0.96-0.144zm-27.264 28.656q-1.152-1.584-2.4-4.056t-1.656-2.952-0.552-0.48h-0.192q-0.864 0.144-1.872 3.072t-1.008 5.736 1.728 2.808q1.248 0 3-1.296t2.952-2.832zm26.456 3.744q-0.528 0-0.96-0.144-3.072-0.864-3.072-3.456 0-3.36 4.224-7.776t7.584-4.416q1.104 0 1.8 0.6t0.696 1.464q0 2.688-4.056 5.136t-6.6 2.448q-0.384 0-0.672-0.096-0.72 1.296-0.72 2.736 0 2.496 2.376 2.496t6.168-3.216q2.928-2.352 4.992-4.992 0.432-0.576 0.744-0.576t0.312 0.288-0.384 0.816q-2.592 3.408-6.24 6.048t-6.192 2.64zm9.072-13.824q0-0.576-1.224-0.576t-3.48 1.872q-3.024 2.496-4.704 5.232 0.288 0.096 0.624 0.096 1.824 0 4.872-1.944t3.816-4.248q0.096-0.24 0.096-0.432zm18.872-1.152 0.672-0.144q0.528 0 1.008 0.432t0.48 0.672-2.976 4.632-2.976 6.12q0 0.144 0.048 0.288 0.24 1.104 1.056 1.104 2.496 0 9.12-8.256 0.144-0.192 0.336-0.192t0.192 0.36-0.432 0.936q-6.144 8.208-9.36 8.208-0.432 0-0.816-0.144-2.112-0.816-2.112-3.168 0-0.816 0.192-1.632l-2.976 2.88q-2.832 2.496-4.104 2.496t-2.424-0.816q-1.296-0.96-1.296-2.544 0-3.504 4.896-8.376t8.976-4.872q1.584 0 2.112 1.104 0.144 0.384 0.24 0.648t0.144 0.264zm-14.352 11.808q0 1.728 1.2 1.728 2.784 0 7.584-6.096l5.088-7.008q-0.384-0.672-1.248-0.672-2.928 0-7.776 4.536t-4.848 7.512zm30.104 2.784q-3.6 0-3.6-3.984 0-2.016 1.056-4.416t2.304-4.032q-0.24 0.048-0.624 0.048-1.152 0-1.92-1.632l-3.552 4.608q-2.976 3.696-3.456 3.696-0.24 0-0.24-0.192 0-0.48 0.816-1.392 4.176-4.848 5.904-8.208 1.104-4.176 2.784-4.176 1.104 0 1.104 0.96t-1.2 2.448l-1.152 1.536q0 1.008 1.488 1.008 0.864 0 1.92-0.624l1.248-0.768q0.096-0.048 0.48-0.048t0.816 0.48 0.288 0.864l-3.312 4.176q-3.072 3.936-3.072 6.216t2.112 2.28q2.208 0 5.424-2.352 1.92-1.392 3.504-3.12 1.488-1.728 1.632-1.728 0.336 0 0.336 0.36t-0.432 0.84l-1.536 1.728q-1.296 1.344-2.88 2.592-3.792 2.832-6.24 2.832zm18.968-15.408q1.296 0 1.296 1.008 0 0.288-0.144 0.576-4.32 6-5.184 9.072 11.184-11.184 13.584-11.184 0.24-0.048 0.432-0.048 1.344 0 1.344 1.2 0 0.24-0.096 0.48t-1.92 2.592q-2.112 2.496-3.576 4.8t-1.464 3.84 0.672 1.536q2.112 0 7.344-5.808 0.096-0.096 0.336-0.432 0.72-0.864 0.864-0.864t0.144 0.48-0.672 1.248q-5.952 6.768-8.448 6.768-2.352 0-2.352-2.592t1.92-5.952l3.072-4.992q-3.264 2.4-5.808 5.256t-4.632 5.544-2.424 2.688q-0.72 0-1.128-0.6t-0.408-1.488 0.624-2.376 1.584-3.6l-2.88 3.024q-1.056 1.056-1.32 1.056t-0.264-0.312 0.384-0.696q1.776-1.776 3.072-3.408 1.248-1.632 5.136-6.24 0.432-0.576 0.912-0.576zm26.264-0.288 6.912-0.096q0.144 0.096 0.144 0.144 0 0.432-5.976 1.2t-6.456 0.912q-0.912 0.816-3.36 4.872t-2.448 5.928q0 1.776 2.448 1.776 1.152 0 3.024-0.72t2.88-1.344q2.688-1.68 5.76-4.944 0.672-0.672 0.912-0.672 0.144 0 0.144 0.288t-0.72 1.152q-2.496 3.072-5.616 4.944-3.744 2.304-7.152 2.304-1.488 0-2.424-0.648t-0.936-2.616 1.728-5.4 2.64-5.112q-0.672 0.144-1.152 0.144-1.392 0-1.392-1.104 0-0.816 1.152-1.152 0.144 0 0.432-0.048h2.784q0.864-1.104 1.968-2.544 1.344-1.728 1.824-1.728t1.2 0.384 0.72 0.912-2.304 3.12q1.248 0.048 3.264 0.048z" fill="#"/>
</svg>
